<svg xmlns="http://www.w3.org/2000/svg" viewBox="0 0 64 64">
  <rect width="64" height="64" rx="14" fill="#150d09"/>
  <g fill="none" stroke="#ff8a3d" stroke-width="2.5">
    <path transform="rotate(0 32 32)" d="M32 32 C 25 23, 26 11, 32 6 C 38 11, 39 23, 32 32 Z"/>
    <path transform="rotate(72 32 32)" d="M32 32 C 25 23, 26 11, 32 6 C 38 11, 39 23, 32 32 Z"/>
    <path transform="rotate(144 32 32)" d="M32 32 C 25 23, 26 11, 32 6 C 38 11, 39 23, 32 32 Z"/>
    <path transform="rotate(216 32 32)" d="M32 32 C 25 23, 26 11, 32 6 C 38 11, 39 23, 32 32 Z"/>
    <path transform="rotate(288 32 32)" d="M32 32 C 25 23, 26 11, 32 6 C 38 11, 39 23, 32 32 Z"/>
  </g>
  <circle cx="32" cy="32" r="4" fill="#e9b44c"/>
</svg>
